<?xml version="1.0" encoding="utf-8"?>
<!-- Generator: Adobe Illustrator 17.0.0, SVG Export Plug-In . SVG Version: 6.00 Build 0)  -->
<!DOCTYPE svg PUBLIC "-//W3C//DTD SVG 1.1//EN" "http://www.w3.org/Graphics/SVG/1.1/DTD/svg11.dtd">
<svg version="1.1" id="Layer_1" xmlns="http://www.w3.org/2000/svg" xmlns:xlink="http://www.w3.org/1999/xlink" x="0px" y="0px"
	 width="160px" height="160px" viewBox="0 0 160 160" enable-background="new 0 0 160 160" xml:space="preserve">
<filter  id="AI_GaussianBlur_4">
	<feGaussianBlur  stdDeviation="2"></feGaussianBlur>
</filter>
<g filter="url(#AI_GaussianBlur_4)">
	<path fill="#414042" d="M55.609,140.812c0,2.846-2.357,5.203-5.203,5.203H29.594c-2.846,0-5.203-2.357-5.203-5.203V99.188
		c0-2.846,2.357-5.203,5.203-5.203h20.812c2.846,0,5.203,2.357,5.203,5.203V140.812z M51.707,105.691
		c0-0.691-0.61-1.301-1.301-1.301H29.594c-0.691,0-1.301,0.609-1.301,1.301v28.617c0,0.691,0.61,1.301,1.301,1.301h20.812
		c0.691,0,1.301-0.609,1.301-1.301V105.691z M43.252,99.188h-6.504c-0.366,0-0.65,0.284-0.65,0.65s0.285,0.65,0.65,0.65h6.504
		c0.366,0,0.65-0.284,0.65-0.65S43.618,99.188,43.252,99.188z M40,137.561c-1.789,0-3.252,1.463-3.252,3.252
		s1.463,3.252,3.252,3.252s3.252-1.463,3.252-3.252S41.789,137.561,40,137.561z"/>
</g>
<g filter="url(#AI_GaussianBlur_4)">
	<path fill="#414042" d="M40.001,15.587c-2.742,0.001-8.104,9.047-9.931,18.021l-6.165,6.164v16.095l4.297,0.001l5.991-5.991
		c0.612,0.641,1.287,1.181,2.011,1.609h7.581c0.728-0.426,1.408-0.965,2.021-1.609l5.991,5.991l4.298-0.001V39.773l-6.165-6.164
		C48.104,24.635,42.741,15.587,40.001,15.587z M40.006,25.023c0.955,0,2.636,2.682,3.683,5.891c-1.134-0.21-2.343-0.328-3.602-0.328
		c-1.324,0-2.592,0.132-3.775,0.364C37.358,27.726,39.047,25.023,40.006,25.023z"/>
	<path fill="#414042" d="M41.927,55.598c0,1.891-1.467,3.424-1.957,3.424c-0.489,0-1.957-1.534-1.957-3.424
		c0-0.732,0.133-1.409,0.356-1.967h-2.266c-0.266,0.98-0.415,2.077-0.416,3.235c0.001,4.168,3.234,7.547,4.313,7.547
		s4.313-3.378,4.313-7.546c0-1.159-0.15-2.254-0.416-3.236l-2.326,0.001C41.794,54.188,41.927,54.865,41.927,55.598z"/>
</g>
<g>
	<linearGradient id="SVGID_1_" gradientUnits="userSpaceOnUse" x1="40" y1="55.868" x2="40" y2="15.5872">
		<stop  offset="0" style="stop-color:#58595B"/>
		<stop  offset="1" style="stop-color:#808285"/>
	</linearGradient>
	<path fill="url(#SVGID_1_)" d="M40.001,15.587c-2.742,0.001-8.104,9.047-9.931,18.021l-6.165,6.164v16.095l4.297,0.001l5.991-5.991
		c0.612,0.641,1.287,1.181,2.011,1.609h7.581c0.728-0.426,1.408-0.965,2.021-1.609l5.991,5.991l4.298-0.001V39.773l-6.165-6.164
		C48.104,24.635,42.741,15.587,40.001,15.587z M40.006,25.023c0.955,0,2.636,2.682,3.683,5.891c-1.134-0.21-2.343-0.328-3.602-0.328
		c-1.324,0-2.592,0.132-3.775,0.364C37.358,27.726,39.047,25.023,40.006,25.023z"/>
	<linearGradient id="SVGID_2_" gradientUnits="userSpaceOnUse" x1="40" y1="64.4128" x2="40" y2="53.6309">
		<stop  offset="0" style="stop-color:#58595B"/>
		<stop  offset="1" style="stop-color:#808285"/>
	</linearGradient>
	<path fill="url(#SVGID_2_)" d="M41.927,55.598c0,1.891-1.467,3.424-1.957,3.424c-0.489,0-1.957-1.534-1.957-3.424
		c0-0.732,0.133-1.409,0.356-1.967h-2.266c-0.266,0.98-0.415,2.077-0.416,3.235c0.001,4.168,3.234,7.547,4.313,7.547
		s4.313-3.378,4.313-7.546c0-1.159-0.15-2.254-0.416-3.236l-2.326,0.001C41.794,54.188,41.927,54.865,41.927,55.598z"/>
</g>
<g opacity="0.5" filter="url(#AI_GaussianBlur_4)">
	<path d="M120.001,15.587c-2.742,0.001-8.104,9.047-9.931,18.021l-6.165,6.164v16.095l4.297,0.001l5.991-5.991
		c0.612,0.641,1.287,1.181,2.011,1.609h7.581c0.728-0.426,1.408-0.965,2.021-1.609l5.991,5.991l4.298-0.001V39.773l-6.165-6.164
		C128.104,24.635,122.741,15.587,120.001,15.587z M120.006,25.023c0.955,0,2.636,2.682,3.683,5.891
		c-1.134-0.21-2.343-0.328-3.602-0.328c-1.324,0-2.592,0.132-3.775,0.364C117.358,27.726,119.047,25.023,120.006,25.023z"/>
	<path d="M121.927,55.598c0,1.891-1.467,3.424-1.957,3.424c-0.489,0-1.957-1.534-1.957-3.424c0-0.732,0.133-1.409,0.356-1.967
		h-2.266c-0.266,0.98-0.415,2.077-0.416,3.235c0.001,4.168,3.234,7.547,4.313,7.547s4.313-3.378,4.313-7.546
		c0-1.159-0.15-2.254-0.416-3.236l-2.326,0.001C121.794,54.188,121.927,54.865,121.927,55.598z"/>
</g>
<g>
	<linearGradient id="SVGID_3_" gradientUnits="userSpaceOnUse" x1="120" y1="55.868" x2="120" y2="15.5872">
		<stop  offset="0" style="stop-color:#1C75BC"/>
		<stop  offset="1" style="stop-color:#27AAE1"/>
	</linearGradient>
	<path fill="url(#SVGID_3_)" d="M120.001,15.587c-2.742,0.001-8.104,9.047-9.931,18.021l-6.165,6.164v16.095l4.297,0.001
		l5.991-5.991c0.612,0.641,1.287,1.181,2.011,1.609h7.581c0.728-0.426,1.408-0.965,2.021-1.609l5.991,5.991l4.298-0.001V39.773
		l-6.165-6.164C128.104,24.635,122.741,15.587,120.001,15.587z M120.006,25.023c0.955,0,2.636,2.682,3.683,5.891
		c-1.134-0.21-2.343-0.328-3.602-0.328c-1.324,0-2.592,0.132-3.775,0.364C117.358,27.726,119.047,25.023,120.006,25.023z"/>
	<linearGradient id="SVGID_4_" gradientUnits="userSpaceOnUse" x1="120" y1="64.4128" x2="120" y2="53.6309">
		<stop  offset="0" style="stop-color:#1C75BC"/>
		<stop  offset="1" style="stop-color:#27AAE1"/>
	</linearGradient>
	<path fill="url(#SVGID_4_)" d="M121.927,55.598c0,1.891-1.467,3.424-1.957,3.424c-0.489,0-1.957-1.534-1.957-3.424
		c0-0.732,0.133-1.409,0.356-1.967h-2.266c-0.266,0.98-0.415,2.077-0.416,3.235c0.001,4.168,3.234,7.547,4.313,7.547
		s4.313-3.378,4.313-7.546c0-1.159-0.15-2.254-0.416-3.236l-2.326,0.001C121.794,54.188,121.927,54.865,121.927,55.598z"/>
</g>
<g>
	<linearGradient id="SVGID_5_" gradientUnits="userSpaceOnUse" x1="40" y1="146.0156" x2="40" y2="93.9844">
		<stop  offset="0" style="stop-color:#58595B"/>
		<stop  offset="1" style="stop-color:#808285"/>
	</linearGradient>
	<path fill="url(#SVGID_5_)" d="M55.609,140.812c0,2.846-2.357,5.203-5.203,5.203H29.594c-2.846,0-5.203-2.357-5.203-5.203V99.188
		c0-2.846,2.357-5.203,5.203-5.203h20.812c2.846,0,5.203,2.357,5.203,5.203V140.812z M51.707,105.691
		c0-0.691-0.61-1.301-1.301-1.301H29.594c-0.691,0-1.301,0.609-1.301,1.301v28.617c0,0.691,0.61,1.301,1.301,1.301h20.812
		c0.691,0,1.301-0.609,1.301-1.301V105.691z M43.252,99.188h-6.504c-0.366,0-0.65,0.284-0.65,0.65s0.285,0.65,0.65,0.65h6.504
		c0.366,0,0.65-0.284,0.65-0.65S43.618,99.188,43.252,99.188z M40,137.561c-1.789,0-3.252,1.463-3.252,3.252
		s1.463,3.252,3.252,3.252s3.252-1.463,3.252-3.252S41.789,137.561,40,137.561z"/>
</g>
<g opacity="0.5" filter="url(#AI_GaussianBlur_4)">
	<path d="M135.609,140.812c0,2.846-2.357,5.203-5.203,5.203h-20.812c-2.846,0-5.203-2.357-5.203-5.203V99.188
		c0-2.846,2.357-5.203,5.203-5.203h20.812c2.846,0,5.203,2.357,5.203,5.203V140.812z M131.707,105.691
		c0-0.691-0.61-1.301-1.301-1.301h-20.812c-0.691,0-1.301,0.609-1.301,1.301v28.617c0,0.691,0.61,1.301,1.301,1.301h20.812
		c0.691,0,1.301-0.609,1.301-1.301V105.691z M123.252,99.188h-6.504c-0.366,0-0.65,0.284-0.65,0.65s0.285,0.65,0.65,0.65h6.504
		c0.366,0,0.65-0.284,0.65-0.65S123.618,99.188,123.252,99.188z M120,137.561c-1.789,0-3.252,1.463-3.252,3.252
		s1.463,3.252,3.252,3.252s3.252-1.463,3.252-3.252S121.789,137.561,120,137.561z"/>
</g>
<g>
	<linearGradient id="SVGID_6_" gradientUnits="userSpaceOnUse" x1="120" y1="146.0156" x2="120" y2="93.9844">
		<stop  offset="0" style="stop-color:#1C75BC"/>
		<stop  offset="1" style="stop-color:#27AAE1"/>
	</linearGradient>
	<path fill="url(#SVGID_6_)" d="M135.609,140.812c0,2.846-2.357,5.203-5.203,5.203h-20.812c-2.846,0-5.203-2.357-5.203-5.203V99.188
		c0-2.846,2.357-5.203,5.203-5.203h20.812c2.846,0,5.203,2.357,5.203,5.203V140.812z M131.707,105.691
		c0-0.691-0.61-1.301-1.301-1.301h-20.812c-0.691,0-1.301,0.609-1.301,1.301v28.617c0,0.691,0.61,1.301,1.301,1.301h20.812
		c0.691,0,1.301-0.609,1.301-1.301V105.691z M123.252,99.188h-6.504c-0.366,0-0.65,0.284-0.65,0.65s0.285,0.65,0.65,0.65h6.504
		c0.366,0,0.65-0.284,0.65-0.65S123.618,99.188,123.252,99.188z M120,137.561c-1.789,0-3.252,1.463-3.252,3.252
		s1.463,3.252,3.252,3.252s3.252-1.463,3.252-3.252S121.789,137.561,120,137.561z"/>
</g>
</svg>
