<?xml version="1.0" encoding="UTF-8" standalone="no"?>
<!-- Generator: Adobe Illustrator 17.0.0, SVG Export Plug-In . SVG Version: 6.00 Build 0)  -->

<svg
   xmlns:dc="http://purl.org/dc/elements/1.1/"
   xmlns:cc="http://creativecommons.org/ns#"
   xmlns:rdf="http://www.w3.org/1999/02/22-rdf-syntax-ns#"
   xmlns:svg="http://www.w3.org/2000/svg"
   xmlns="http://www.w3.org/2000/svg"
   xmlns:sodipodi="http://sodipodi.sourceforge.net/DTD/sodipodi-0.dtd"
   xmlns:inkscape="http://www.inkscape.org/namespaces/inkscape"
   version="1.1"
   id="Layer_1"
   x="0px"
   y="0px"
   width="64px"
   height="64px"
   viewBox="0 0 64 64"
   enable-background="new 0 0 64 64"
   xml:space="preserve"
   inkscape:version="0.48.3.1 r9886"
   sodipodi:docname="remove.svg"><metadata
   id="metadata9"><rdf:RDF><cc:Work
       rdf:about=""><dc:format>image/svg+xml</dc:format><dc:type
         rdf:resource="http://purl.org/dc/dcmitype/StillImage" /></cc:Work></rdf:RDF></metadata><defs
   id="defs7" /><sodipodi:namedview
   pagecolor="#ffffff"
   bordercolor="#666666"
   borderopacity="1"
   objecttolerance="10"
   gridtolerance="10"
   guidetolerance="10"
   inkscape:pageopacity="0"
   inkscape:pageshadow="2"
   inkscape:window-width="1244"
   inkscape:window-height="688"
   id="namedview5"
   showgrid="false"
   inkscape:zoom="3.6875"
   inkscape:cx="31.728814"
   inkscape:cy="32"
   inkscape:window-x="37"
   inkscape:window-y="37"
   inkscape:window-maximized="0"
   inkscape:current-layer="Layer_1" />
<path
   d="m 12.183457,12.241457 c -11.129861,11.12986 -11.129861,29.175226 0,40.305086 11.12986,11.129861 29.175226,11.129861 40.305086,0 11.129861,-11.12986 11.129861,-29.175226 0,-40.305086 -11.12986,-11.129861 -29.175226,-11.129861 -40.305086,0 z m 32.241241,14.52963 -5.531697,5.531696 5.388154,5.388154 c 1.82575,1.82575 1.82575,4.823882 0,6.649632 -1.827164,1.827164 -4.825297,1.827164 -6.651047,0.0014 l -5.388153,-5.388153 -5.527454,5.527453 c -1.781909,1.781909 -4.686704,1.779081 -6.465784,0 -1.779081,-1.77908 -1.781202,-4.684582 0,-6.465784 l 5.527453,-5.527454 -5.388153,-5.388153 c -1.82575,-1.82575 -1.82575,-4.823883 0.0014,-6.651047 1.82575,-1.82575 4.823882,-1.82575 6.649632,0 l 5.388154,5.388154 5.531696,-5.531697 c 1.777667,-1.777666 4.68529,-1.777666 6.46437,0.0014 1.779081,1.77908 1.779081,4.686703 0.0014,6.46437 z"
   id="path3"
   inkscape:connector-curvature="0"
   style="fill:#d8abab;fill-opacity:1" />
</svg>